<?xml version="1.0" encoding="UTF-8"?>
<svg version="1.1" xmlns="http://www.w3.org/2000/svg" xmlns:xlink="http://www.w3.org/1999/xlink" width="400" class="logo-svg" height="50" viewBox="0 0 200.628 250.55" overflow="visible" enable-background="new 0 0 608.628 612.55" xml:space="preserve">
    <defs>
        <linearGradient x1="50%" y1="0%" x2="50%" y2="100%" id="linearGradient-1">
            <stop stop-color="#000000" stop-opacity="0" offset="0%"></stop>
            <stop stop-color="#000000" stop-opacity="0.4" offset="100%"></stop>
        </linearGradient>
        <path d="M8.47750614,0.594831293 L19.4775061,0.594831293 L19.4775061,0.594831293 C29.9709164,0.594831293 38.4775061,9.10142105 38.4775061,19.5948313 L38.4775061,146.051821 L0.477506135,146.051821 L0.477506135,8.59483129 L0.477506135,8.59483129 C0.477506135,4.17655329 4.05922814,0.594831293 8.47750614,0.594831293 Z" id="path-2"></path>
        <linearGradient x1="50%" y1="0%" x2="50%" y2="100%" id="linearGradient-3">
            <stop stop-color="#000000" stop-opacity="0" offset="0%"></stop>
            <stop stop-color="#000000" stop-opacity="0.32" offset="100%"></stop>
        </linearGradient>
        <path d="M8.54605842,0.831267007 L19.5460584,0.831267007 C30.0394687,0.831267007 38.5460584,9.33785676 38.5460584,19.831267 L38.5460584,163.204754 L0.546058424,163.204754 L0.546058424,8.83126701 C0.546058424,4.41298901 4.12778043,0.831267007 8.54605842,0.831267007 Z" id="path-4"></path>
        <linearGradient x1="50%" y1="20.1540303%" x2="50%" y2="100%" id="linearGradient-5">
            <stop stop-color="#000000" stop-opacity="0" offset="0%"></stop>
            <stop stop-color="#000000" stop-opacity="0.06" offset="43.4595585%"></stop>
            <stop stop-color="#000000" stop-opacity="0.45" offset="100%"></stop>
        </linearGradient>
        <path d="M8,0 L19,0 L19,0 C29.4934102,-1.92760819e-15 38,8.50658975 38,19 L38,178 L0,178 L0,8 L0,8 C-5.41083001e-16,3.581722 3.581722,8.11624501e-16 8,0 Z" id="path-6"></path>
    </defs>
<g id="EvaloLogo01">
    <g id="Evalo" mask="url(#aokfingersmask)" stroke="none" stroke-width="1" fill="none" fill-rule="evenodd">
        <g id="Artboard-Copy-2" transform="translate(-81.000000, -67.000000)">
            <g id="Evalo_icon" transform="translate(77.000000, 67.000000)">
                <g transform="translate(59.978720, 138.590110) rotate(-32.000000) translate(-55.978720, -138.590110) translate(36.478720, 65.090110)">
                    <g id="fingerpink">
                        <use fill="#F22657" xlink:href="#path-2"></use>
                        <use fill-opacity="0.24000001" fill="#000000" xlink:href="#path-2"></use>
                        <use fill="url(#linearGradient-1)" xlink:href="#path-2"></use>
                    </g>
                </g>
                <g transform="translate(70.043145, 104.436120) rotate(-16.000000) translate(-69.043145, -104.436120) translate(49.543145, 22.436120)">
                    <g id="fingerring">
                        <use fill="#F42558" xlink:href="#path-4"></use>
                        <use fill-opacity="0.129999995" fill="#000000" xlink:href="#path-4"></use>
                        <use fill="url(#linearGradient-3)" xlink:href="#path-4"></use>
                    </g>
                </g>
                <g transform="translate(72.000000, 0.000000)">
                    <g id="fingermiddle" >
                        <use fill="#F42558" xlink:href="#path-6"></use>
                        <use fill="url(#linearGradient-5)" xlink:href="#path-6"></use>
                    </g>
                </g>
            </g>
        </g>
    </g>
      <mask id="aokfingersmask">
        <path id="aokfingersmask" fill="#FFFFFF" d="M77,176.501c-21.116,0.477-23.25,2.131-29.667-8.667
		c-9.003-15.151-28.224,0.072-44.667-27.333c-6-10-11.871-58.353-9.717-64.648C-5.333,70.834-11-1.167-11-1.167s154-1,178,5
		S233.333,51.5,247.333,71.5s-0.667,81.001-12,85.334S207.667,163.5,200,148.167c-7.667-15.333-36.333-28-54-24.333
		s-32.333,14-41.333,31.667S117.748,175.581,77,176.501z"/>
</mask>

<g id="aok" mask="url(#aokmask)">
<path d="M180.620115,91.410812 C207.458192,97.532908 228.607121,115.321308 239.937732,138.206295 C240.188712,138.671391 242.017251,142.855992 245.42335,150.760098 C247.160351,154.822611 245.27515,159.524045 241.212637,161.261045 C241.173804,161.277649 237.838343,162.611795 231.206256,165.263483 C221.43297,169.170311 210.311981,164.738479 205.904567,155.180491 L205.535337,154.379772 C199.020373,141.699255 187.155824,131.87782 172.168938,128.459127 C145.246281,122.317737 118.442576,139.164282 112.301186,166.086939 C106.159797,193.009596 123.006342,219.813301 149.928999,225.954691 C171.46516,230.867355 192.925206,221.070423 203.793812,203.172943 L206.052061,199.006059 C211.307091,189.675152 222.551131,186.095271 231.95169,190.576861 L241.508359,195.132874 C245.62088,197.212234 247.198756,202.025525 245.203213,205.967477 C241.432894,213.342771 239.463742,217.193731 239.295756,217.520355 C221.352567,252.408372 181.489835,272.130239 141.477822,263.003006 C117.64339,257.566078 98.2959381,242.928043 86.3276288,223.69048 L51.3972495,167.19265 C62.0671042,170.20574 69.2953408,164.684833 83.1865101,136.154864 C83.9179039,134.652712 85.2585414,132.304953 87.2734371,129.192521 C106.817865,99.168861 143.655286,82.9786791 180.620115,91.410812 Z" id="Combined-Shape" fill="#F42558"></path>
</g>
<mask id="aokmask">
  <path id="aokmask" fill="none" stroke="#FFFFFF" stroke-width="70" stroke-linecap="round" d="M263.125,164
		c0,0-49.875-43.25-66.125-46c-34.555-5.848-68,9.5-84,30s-7.091,58.118,17,75.5c26.333,19,73.377,31.301,98.5-1
		c0.875-1.125,20.875-34.875,20.875-34.875"/>
</mask>
</g>

<g id="EvaloText" mask="url(#EvaloTextMask)">
	<g id="FINAL_1_">
		<g id="Artboard-2-Copy" transform="translate(-150.000000, -91.000000)">
			<g id="Evalo_Logo_v2" transform="translate(147.000000, 91.000000)">
				<path id="EvaloText" fill="#323232" d="M341.803,206.936v4.318c0,2.105-0.748,3.876-2.243,5.316
					c-1.494,1.438-3.294,2.158-5.397,2.158c-2.104,0-3.875-0.72-5.315-2.158c-1.439-1.44-2.159-3.211-2.159-5.316V103.457
					c0-2.104,0.72-3.904,2.159-5.398c1.44-1.495,3.211-2.243,5.315-2.243c2.214,0,4.042,0.72,5.481,2.16
					c1.438,1.44,2.159,3.267,2.159,5.481v40.693c8.084-8.415,17.551-12.623,28.402-12.623c6.865,0,13.371,1.744,19.516,5.231
					c6.146,3.489,11.129,8.583,14.949,15.282c3.821,6.699,5.731,14.533,5.731,23.503c0,8.968-1.91,16.802-5.731,23.502
					c-3.82,6.7-8.803,11.793-14.949,15.282c-6.145,3.486-12.65,5.231-19.516,5.231C359.354,219.56,349.887,215.352,341.803,206.936z
					 M387.812,197.634c4.982-5.204,7.474-12.568,7.474-22.09c0-9.523-2.491-16.887-7.474-22.092
					c-4.983-5.204-11.571-7.806-19.766-7.806c-5.094,0-9.883,1.134-14.367,3.404c-4.485,2.27-8.443,5.288-11.876,9.053v34.88
					c3.433,3.766,7.391,6.782,11.876,9.053c4.484,2.27,9.273,3.405,14.367,3.405C376.24,205.441,382.828,202.84,387.812,197.634z
					 M442.873,215.241c-4.484-2.88-7.917-6.81-10.298-11.793c-2.382-4.982-3.571-10.465-3.571-16.444v-47.172
					c0-2.104,0.747-3.876,2.242-5.314c1.495-1.439,3.294-2.16,5.398-2.16c2.104,0,3.876,0.72,5.314,2.16
					c1.44,1.438,2.159,3.211,2.159,5.314v45.512c0,13.508,6.091,20.263,18.271,20.263c5.537,0,10.491-1.438,14.866-4.318
					c4.374-2.879,8.498-6.755,12.373-11.627v-49.829c0-2.104,0.748-3.876,2.242-5.314c1.495-1.439,3.295-2.16,5.399-2.16
					c2.104,0,3.875,0.72,5.314,2.16c1.439,1.438,2.16,3.211,2.16,5.314v71.256c0,2.104-0.721,3.904-2.16,5.398
					c-1.439,1.495-3.211,2.242-5.314,2.242c-2.104,0-3.904-0.747-5.399-2.242c-1.494-1.494-2.242-3.295-2.242-5.398v-6.81
					c-4.207,4.65-8.747,8.36-13.619,11.129c-4.872,2.768-10.631,4.152-17.274,4.152C452.645,219.56,447.358,218.119,442.873,215.241
					z M544.857,214.328c-6.146-3.489-11.129-8.582-14.949-15.282s-5.73-14.534-5.73-23.502c0-8.97,1.91-16.804,5.73-23.503
					s8.804-11.793,14.949-15.282c6.145-3.487,12.65-5.231,19.516-5.231c10.853,0,20.32,4.208,28.404,12.623v-40.693
					c0-2.215,0.746-4.042,2.241-5.481c1.494-1.439,3.294-2.16,5.398-2.16s3.875,0.748,5.314,2.243c1.44,1.495,2.16,3.294,2.16,5.398
					v107.797c0,2.105-0.72,3.876-2.16,5.316c-1.439,1.438-3.21,2.158-5.314,2.158s-3.904-0.72-5.398-2.158
					c-1.495-1.44-2.241-3.211-2.241-5.316v-4.318c-8.084,8.416-17.552,12.624-28.404,12.624
					C557.508,219.56,551.002,217.814,544.857,214.328z M579.239,202.036c4.484-2.271,8.443-5.287,11.876-9.053v-34.88
					c-3.433-3.765-7.392-6.783-11.876-9.053c-4.484-2.271-9.274-3.404-14.367-3.404c-8.194,0-14.783,2.602-19.767,7.806
					c-4.982,5.205-7.474,12.568-7.474,22.092c0,9.521,2.491,16.886,7.474,22.09c4.983,5.206,11.572,7.808,19.767,7.808
					C569.965,205.441,574.755,204.306,579.239,202.036z M648.004,214.328c-6.146-3.489-11.129-8.582-14.948-15.282
					c-3.82-6.7-5.731-14.534-5.731-23.502c0-8.97,1.911-16.804,5.731-23.503c3.819-6.699,8.803-11.793,14.948-15.282
					c6.146-3.487,12.651-5.231,19.517-5.231c10.852,0,20.319,4.208,28.403,12.623v-40.693c0-2.215,0.746-4.042,2.242-5.481
					c1.494-1.439,3.294-2.16,5.397-2.16c2.104,0,3.876,0.748,5.314,2.243c1.44,1.495,2.16,3.294,2.16,5.398v107.797
					c0,2.105-0.72,3.876-2.16,5.316c-1.438,1.438-3.21,2.158-5.314,2.158c-2.104,0-3.903-0.72-5.397-2.158
					c-1.496-1.44-2.242-3.211-2.242-5.316v-4.318c-8.084,8.416-17.552,12.624-28.403,12.624
					C660.655,219.56,654.15,217.814,648.004,214.328z M684.048,202.036c4.483-2.271,8.442-5.287,11.876-9.053v-34.88
					c-3.434-3.765-7.393-6.783-11.876-9.053c-4.485-2.271-9.274-3.404-14.369-3.404c-8.193,0-14.782,2.602-19.765,7.806
					c-4.983,5.205-7.475,12.568-7.475,22.092c0,9.521,2.491,16.886,7.475,22.09c4.982,5.206,11.571,7.808,19.765,7.808
					C674.773,205.441,679.563,204.306,684.048,202.036z M751.15,254.771c-1.384-1.438-2.076-3.155-2.076-5.148
					c0-0.886,0.166-1.771,0.498-2.658l10.797-27.738l-31.227-76.072c-0.442-1.107-0.665-2.159-0.665-3.155
					c0-2.104,0.721-3.904,2.16-5.398c1.439-1.496,3.212-2.243,5.314-2.243c1.551,0,2.963,0.442,4.236,1.33
					c1.273,0.885,2.187,1.992,2.74,3.321l25.579,63.449l26.078-63.117c1.438-3.322,3.765-4.983,6.976-4.983
					c2.104,0,3.875,0.747,5.315,2.243c1.439,1.494,2.159,3.294,2.159,5.398c0,0.996-0.166,1.938-0.499,2.822l-45.344,108.96
					c-1.551,3.435-3.877,5.15-6.978,5.15C754.224,256.932,752.535,256.212,751.15,254.771z M843.584,214.244
					c-6.755-3.544-12.152-8.638-16.194-15.281s-6.062-14.451-6.062-23.419c0-8.97,2.02-16.776,6.062-23.421
					c4.042-6.644,9.439-11.737,16.194-15.28c6.755-3.544,14.118-5.315,22.092-5.315c5.868,0,10.935,0.748,15.197,2.242
					c4.263,1.496,8.222,3.404,11.876,5.73c2.215,1.438,3.322,3.378,3.322,5.813c0,1.662-0.638,3.185-1.911,4.568
					c-1.273,1.385-2.739,2.076-4.401,2.076c-1.218,0-2.436-0.332-3.653-0.996c-3.654-1.884-6.782-3.238-9.385-4.07
					c-2.603-0.83-5.841-1.244-9.717-1.244c-9.522,0-16.997,2.74-22.424,8.221c-5.425,5.48-8.138,12.707-8.138,21.677
					c0,8.968,2.713,16.193,8.138,21.675c5.427,5.481,12.901,8.223,22.424,8.223c3.876,0,7.114-0.415,9.717-1.247
					c2.603-0.83,5.73-2.187,9.385-4.069c1.218-0.664,2.436-0.995,3.653-0.995c1.662,0,3.128,0.69,4.401,2.075
					s1.911,2.907,1.911,4.568c0,2.436-1.107,4.374-3.322,5.813c-3.654,2.325-7.613,4.235-11.876,5.73s-9.329,2.242-15.197,2.242
					C857.702,219.56,850.339,217.788,843.584,214.244z M917.165,216.57c-1.438-1.44-2.159-3.211-2.159-5.316V103.457
					c0-2.104,0.721-3.904,2.159-5.398c1.44-1.495,3.212-2.243,5.315-2.243s3.903,0.748,5.398,2.243
					c1.495,1.495,2.242,3.294,2.242,5.398v43.352c4.207-4.651,8.748-8.361,13.621-11.129c4.871-2.768,10.63-4.152,17.273-4.152
					c6.091,0,11.378,1.439,15.862,4.318c4.484,2.88,7.917,6.811,10.298,11.793c2.381,4.983,3.571,10.465,3.571,16.444v47.171
					c0,2.105-0.748,3.876-2.243,5.316c-1.494,1.438-3.293,2.158-5.397,2.158s-3.875-0.72-5.315-2.158
					c-1.439-1.44-2.159-3.211-2.159-5.316v-45.511c0-13.509-6.09-20.263-18.271-20.263c-5.536,0-10.491,1.438-14.865,4.317
					s-8.5,6.754-12.375,11.627v49.829c0,2.105-0.747,3.876-2.242,5.316c-1.495,1.438-3.295,2.158-5.398,2.158
					S918.605,218.009,917.165,216.57z M1020.728,208.016c-7.586-7.696-11.378-18.521-11.378-32.472
					c0-7.863,1.439-15.114,4.318-21.76c2.879-6.645,7.31-12.014,13.288-16.111c5.979-4.097,13.344-6.146,22.092-6.146
					c8.193,0,15.28,1.911,21.26,5.73c5.979,3.82,10.52,8.913,13.62,15.281c3.101,6.367,4.651,13.314,4.651,20.845
					c0,2.104-0.693,3.877-2.077,5.315c-1.383,1.438-3.238,2.159-5.564,2.159h-56.307c0.886,7.752,3.765,13.786,8.637,18.104
					c4.873,4.319,11.683,6.479,20.431,6.479c4.651,0,8.72-0.443,12.208-1.329c3.488-0.887,6.893-2.16,10.215-3.819
					c0.887-0.443,1.883-0.666,2.989-0.666c1.772,0,3.322,0.609,4.651,1.828c1.329,1.218,1.993,2.768,1.993,4.65
					c0,2.437-1.439,4.484-4.318,6.146c-4.318,2.437-8.582,4.264-12.789,5.482c-4.209,1.217-9.634,1.826-16.278,1.826
					C1038.859,219.56,1028.313,215.712,1020.728,208.016z M1073.63,168.568c-0.332-5.427-1.744-9.967-4.235-13.621
					c-2.492-3.654-5.564-6.34-9.219-8.057c-3.654-1.715-7.363-2.573-11.128-2.573s-7.475,0.858-11.129,2.573
					c-3.654,1.717-6.699,4.402-9.136,8.057c-2.436,3.654-3.82,8.194-4.152,13.621H1073.63z M1125.619,214.244
					c-6.756-3.544-12.153-8.638-16.195-15.281c-4.041-6.644-6.063-14.451-6.063-23.419c0-8.97,2.021-16.776,6.063-23.421
					c4.042-6.644,9.439-11.737,16.195-15.28c6.754-3.544,14.117-5.315,22.091-5.315c5.868,0,10.935,0.748,15.197,2.242
					c4.263,1.496,8.222,3.404,11.877,5.73c2.214,1.438,3.321,3.378,3.321,5.813c0,1.662-0.637,3.185-1.91,4.568
					c-1.273,1.385-2.741,2.076-4.401,2.076c-1.219,0-2.437-0.332-3.655-0.996c-3.652-1.884-6.782-3.238-9.384-4.07
					c-2.602-0.83-5.842-1.244-9.717-1.244c-9.523,0-16.997,2.74-22.423,8.221c-5.427,5.48-8.139,12.707-8.139,21.677
					c0,8.968,2.712,16.193,8.139,21.675c5.426,5.481,12.899,8.223,22.423,8.223c3.875,0,7.115-0.415,9.717-1.247
					c2.602-0.83,5.731-2.187,9.384-4.069c1.219-0.664,2.437-0.995,3.655-0.995c1.66,0,3.128,0.69,4.401,2.075s1.91,2.907,1.91,4.568
					c0,2.436-1.107,4.374-3.321,5.813c-3.655,2.325-7.614,4.235-11.877,5.73s-9.329,2.242-15.197,2.242
					C1139.736,219.56,1132.373,217.788,1125.619,214.244z M1199.2,216.57c-1.44-1.44-2.16-3.211-2.16-5.316V103.457
					c0-2.104,0.72-3.904,2.16-5.398c1.439-1.495,3.21-2.243,5.314-2.243s3.904,0.748,5.398,2.243
					c1.495,1.495,2.243,3.294,2.243,5.398v67.934l39.531-36.541c1.66-1.44,3.321-2.16,4.982-2.16c2.547,0,4.401,0.719,5.563,2.16
					c1.163,1.439,1.744,3.155,1.744,5.149c0,1.882-0.94,3.765-2.823,5.647l-23.918,21.425l30.064,39.864
					c1.106,1.44,1.66,2.935,1.66,4.485c0,2.214-0.72,3.986-2.159,5.314c-1.439,1.329-3.267,1.993-5.481,1.993
					c-1.107,0-2.215-0.276-3.321-0.83c-1.108-0.554-2.05-1.328-2.824-2.326l-28.569-38.865l-14.449,13.121v21.426
					c0,2.105-0.748,3.876-2.243,5.316c-1.494,1.438-3.294,2.158-5.398,2.158S1200.64,218.009,1199.2,216.57z"/>
			</g>
		</g>
	</g>
</g>
<mask id="EvaloTextMask">
	<line id="EvaloTextMask" fill="none" stroke="#FFFFFF" stroke-width="184" x1="321.908" y1="168.827" x2="1268.248" y2="168.827"/>
</mask>

</svg>
